<svg xmlns="http://www.w3.org/2000/svg" viewBox="0 0 960 320" width="960" height="320"><defs><linearGradient id="bg161" x1="0" y1="0" x2="1" y2="1"><stop offset="0" stop-color="#1e1b4b"/><stop offset="1" stop-color="#4338ca"/></linearGradient></defs>
<rect width="960" height="320" fill="url(#bg161)"/>
<circle cx="748.8000000000001" cy="64" r="176" fill="#fff" opacity=".07"/>
<circle cx="912" cy="304" r="128" fill="#fff" opacity=".06"/>
<circle cx="48" cy="336" r="96" fill="#fff" opacity=".05"/>
<g transform="translate(560 20) scale(0.5)"><ellipse cx="400" cy="600" rx="320" ry="20" fill="#0f172a" opacity=".10"/>
<rect x="96" y="276" width="608" height="238" rx="28" fill="#111827"/><rect x="118" y="300" width="40" height="40" rx="8" fill="#6b7280" opacity="0.95"/><rect x="165" y="300" width="40" height="40" rx="8" fill="#6b7280" opacity="0.95"/><rect x="212" y="300" width="40" height="40" rx="8" fill="#6b7280" opacity="0.95"/><rect x="259" y="300" width="40" height="40" rx="8" fill="#6b7280" opacity="0.95"/><rect x="306" y="300" width="40" height="40" rx="8" fill="#6b7280" opacity="0.95"/><rect x="353" y="300" width="40" height="40" rx="8" fill="#6b7280" opacity="0.95"/><rect x="400" y="300" width="40" height="40" rx="8" fill="#6b7280" opacity="0.95"/><rect x="447" y="300" width="40" height="40" rx="8" fill="#6b7280" opacity="0.95"/><rect x="494" y="300" width="40" height="40" rx="8" fill="#6b7280" opacity="0.95"/><rect x="541" y="300" width="40" height="40" rx="8" fill="#6b7280" opacity="0.95"/><rect x="588" y="300" width="40" height="40" rx="8" fill="#6b7280" opacity="0.95"/><rect x="635" y="300" width="40" height="40" rx="8" fill="#6b7280" opacity="0.95"/><rect x="118" y="350" width="40" height="40" rx="8" fill="#6b7280" opacity="0.95"/><rect x="165" y="350" width="40" height="40" rx="8" fill="#6b7280" opacity="0.95"/><rect x="212" y="350" width="40" height="40" rx="8" fill="#6b7280" opacity="0.95"/><rect x="259" y="350" width="40" height="40" rx="8" fill="#6b7280" opacity="0.95"/><rect x="306" y="350" width="40" height="40" rx="8" fill="#6b7280" opacity="0.95"/><rect x="353" y="350" width="40" height="40" rx="8" fill="#6b7280" opacity="0.95"/><rect x="400" y="350" width="40" height="40" rx="8" fill="#6b7280" opacity="0.95"/><rect x="447" y="350" width="40" height="40" rx="8" fill="#6b7280" opacity="0.95"/><rect x="494" y="350" width="40" height="40" rx="8" fill="#6b7280" opacity="0.95"/><rect x="541" y="350" width="40" height="40" rx="8" fill="#6b7280" opacity="0.95"/><rect x="588" y="350" width="40" height="40" rx="8" fill="#6b7280" opacity="0.95"/><rect x="635" y="350" width="40" height="40" rx="8" fill="#6b7280" opacity="0.95"/><rect x="118" y="400" width="40" height="40" rx="8" fill="#6b7280" opacity="0.95"/><rect x="165" y="400" width="40" height="40" rx="8" fill="#6b7280" opacity="0.95"/><rect x="212" y="400" width="40" height="40" rx="8" fill="#6b7280" opacity="0.95"/><rect x="259" y="400" width="40" height="40" rx="8" fill="#6b7280" opacity="0.95"/><rect x="306" y="400" width="40" height="40" rx="8" fill="#6b7280" opacity="0.95"/><rect x="353" y="400" width="40" height="40" rx="8" fill="#6b7280" opacity="0.95"/><rect x="400" y="400" width="40" height="40" rx="8" fill="#6b7280" opacity="0.95"/><rect x="447" y="400" width="40" height="40" rx="8" fill="#6b7280" opacity="0.95"/><rect x="494" y="400" width="40" height="40" rx="8" fill="#6b7280" opacity="0.95"/><rect x="541" y="400" width="40" height="40" rx="8" fill="#6b7280" opacity="0.95"/><rect x="588" y="400" width="40" height="40" rx="8" fill="#6b7280" opacity="0.95"/><rect x="635" y="400" width="40" height="40" rx="8" fill="#6b7280" opacity="0.95"/><rect x="118" y="450" width="40" height="40" rx="8" fill="#6b7280" opacity="0.95"/><rect x="165" y="450" width="40" height="40" rx="8" fill="#6b7280" opacity="0.95"/><rect x="212" y="450" width="40" height="40" rx="8" fill="#6b7280" opacity="0.95"/><rect x="259" y="450" width="40" height="40" rx="8" fill="#6b7280" opacity="0"/><rect x="306" y="450" width="40" height="40" rx="8" fill="#6b7280" opacity="0"/><rect x="353" y="450" width="40" height="40" rx="8" fill="#6b7280" opacity="0"/><rect x="400" y="450" width="40" height="40" rx="8" fill="#6b7280" opacity="0"/><rect x="447" y="450" width="40" height="40" rx="8" fill="#6b7280" opacity="0"/><rect x="494" y="450" width="40" height="40" rx="8" fill="#6b7280" opacity="0"/><rect x="541" y="450" width="40" height="40" rx="8" fill="#6b7280" opacity="0.95"/><rect x="588" y="450" width="40" height="40" rx="8" fill="#6b7280" opacity="0.95"/><rect x="635" y="450" width="40" height="40" rx="8" fill="#6b7280" opacity="0.95"/>
<rect x="259" y="450" width="282" height="40" rx="8" fill="#6b7280"/></g>
<text x="67" y="64" font-family="Inter, 'Segoe UI', Roboto, Arial, sans-serif" font-size="14" font-weight="700" letter-spacing="3" fill="rgba(255,255,255,.82)" text-anchor="start">WORK FROM ANYWHERE</text>
<text x="67" y="134" font-family="Inter, 'Segoe UI', Roboto, Arial, sans-serif" font-size="42" font-weight="800" fill="#ffffff" text-anchor="start">Desk setup essentials</text>
<text x="67" y="166" font-family="Inter, 'Segoe UI', Roboto, Arial, sans-serif" font-size="16" fill="rgba(255,255,255,.82)" text-anchor="start">Keyboards, mice and hubs that just work.</text>
<rect x="67" y="188" width="158" height="32" rx="16" fill="#ffffff"/>
<text x="146" y="208.48" font-family="Inter, 'Segoe UI', Roboto, Arial, sans-serif" font-size="13" font-weight="700" fill="#4338ca" text-anchor="middle">Shop Accessories</text></svg>
