<svg xmlns="http://www.w3.org/2000/svg" viewBox="0 0 800 800" width="800" height="800"><defs><linearGradient id="bg162" x1="0" y1="0" x2="1" y2="1"><stop offset="0" stop-color="#0369a1"/><stop offset="1" stop-color="#38bdf8"/></linearGradient></defs>
<rect width="800" height="800" fill="url(#bg162)"/>
<circle cx="624" cy="160" r="440.00000000000006" fill="#fff" opacity=".07"/>
<circle cx="760" cy="760" r="320" fill="#fff" opacity=".06"/>
<circle cx="40" cy="840" r="240" fill="#fff" opacity=".05"/>
<g transform="translate(200 440) scale(0.5)"><defs><linearGradient id="g163" x1="0" y1="0" x2="0.2" y2="1"><stop offset="0" stop-color="#ffffff"/><stop offset="1" stop-color="#e8edf3"/></linearGradient><linearGradient id="b164" x1="0" y1="0" x2="1" y2="1"><stop offset="0" stop-color="#ffffff"/><stop offset="1" stop-color="#e8edf3"/></linearGradient></defs><ellipse cx="400" cy="680" rx="250" ry="26" fill="#0f172a" opacity=".10"/>
<rect x="230" y="300" width="340" height="300" rx="120" fill="url(#g163)"/>
<path d="M232 410 H568" stroke="#94a3b8" stroke-width="5" opacity=".35"/>
<rect x="380" y="470" width="40" height="10" rx="5" fill="#22c55e"/>
<path d="M300 300 Q400 270 500 300" stroke="#fff" stroke-width="6" opacity=".35" fill="none"/>
<g transform="translate(160 150) rotate(-18)"><ellipse cx="70" cy="70" rx="62" ry="58" fill="url(#b164)"/><circle cx="56" cy="60" r="26" fill="#94a3b8" opacity=".85"/><rect x="92" y="80" width="36" height="150" rx="18" fill="url(#b164)"/></g>
<g transform="translate(470 120) rotate(16)"><ellipse cx="70" cy="70" rx="62" ry="58" fill="url(#b164)"/><circle cx="84" cy="60" r="26" fill="#94a3b8" opacity=".85"/><rect x="12" y="80" width="36" height="150" rx="18" fill="url(#b164)"/></g></g>
<text x="400" y="160" font-family="Inter, 'Segoe UI', Roboto, Arial, sans-serif" font-size="20" font-weight="700" letter-spacing="3" fill="rgba(255,255,255,.82)" text-anchor="middle">WELCOME TO GRABITY</text>
<text x="400" y="304.65" font-family="Inter, 'Segoe UI', Roboto, Arial, sans-serif" font-size="57" font-weight="800" fill="#ffffff" text-anchor="middle">Get ৳300 off</text><text x="400" y="366.21" font-family="Inter, 'Segoe UI', Roboto, Arial, sans-serif" font-size="57" font-weight="800" fill="#ffffff" text-anchor="middle">your first order</text>
<text x="400" y="410.21" font-family="Inter, 'Segoe UI', Roboto, Arial, sans-serif" font-size="22" fill="rgba(255,255,255,.82)" text-anchor="middle">Use code WELCOME300 on orders over ৳3,000</text>
<rect x="302" y="441.21" width="196" height="44" rx="22" fill="#ffffff"/>
<text x="400" y="469.37" font-family="Inter, 'Segoe UI', Roboto, Arial, sans-serif" font-size="18" font-weight="700" fill="#0369a1" text-anchor="middle">Start Shopping</text></svg>
