<svg xmlns="http://www.w3.org/2000/svg" viewBox="0 0 800 800" width="800" height="800"><ellipse cx="400" cy="720" rx="120" ry="16" fill="#0f172a" opacity=".10"/>
<circle cx="400" cy="300" r="190" fill="#0d9488"/><circle cx="400" cy="300" r="170" fill="#134e4a" opacity=".35"/>
<path d="M400 300 C430 220 500 220 500 270 C500 300 450 310 400 300 Z" fill="#5eead4" opacity=".9" transform="rotate(0 400 300)"/><path d="M400 300 C430 220 500 220 500 270 C500 300 450 310 400 300 Z" fill="#5eead4" opacity=".9" transform="rotate(72 400 300)"/><path d="M400 300 C430 220 500 220 500 270 C500 300 450 310 400 300 Z" fill="#5eead4" opacity=".9" transform="rotate(144 400 300)"/><path d="M400 300 C430 220 500 220 500 270 C500 300 450 310 400 300 Z" fill="#5eead4" opacity=".9" transform="rotate(216 400 300)"/><path d="M400 300 C430 220 500 220 500 270 C500 300 450 310 400 300 Z" fill="#5eead4" opacity=".9" transform="rotate(288 400 300)"/><circle cx="400" cy="300" r="34" fill="#134e4a"/>
<circle cx="400" cy="300" r="170" fill="none" stroke="#fff" stroke-width="3" opacity=".35"/>
<rect x="360" y="470" width="80" height="230" rx="36" fill="#0d9488"/><rect x="384" y="520" width="32" height="50" rx="16" fill="#5eead4"/></svg>
