<svg xmlns="http://www.w3.org/2000/svg" viewBox="0 0 800 800" width="800" height="800"><defs><linearGradient id="g29" x1="0" y1="0" x2="1" y2="1"><stop offset="0" stop-color="#db2777"/><stop offset="1" stop-color="#831843"/></linearGradient><linearGradient id="g30" x1="0" y1="0" x2="0.3" y2="1"><stop offset="0" stop-color="#f9a8d4"/><stop offset="1" stop-color="#db2777"/></linearGradient><linearGradient id="g31" x1="0" y1="0" x2="1" y2="1"><stop offset="0" stop-color="#0b1020"/><stop offset="1" stop-color="#1e293b"/></linearGradient><linearGradient id="w32" x1="0" y1="0" x2="1" y2="1"><stop offset="0" stop-color="#f9a8d4"/><stop offset="1" stop-color="#831843"/></linearGradient></defs>
<ellipse cx="410" cy="715" rx="250" ry="24" fill="#0f172a" opacity=".10"/>
<g transform="rotate(9 520 400)">
  <rect x="392" y="96" width="250" height="540" rx="46" fill="url(#g29)"/>
  <rect x="400" y="104" width="234" height="524" rx="40" fill="url(#g30)" opacity=".55"/>
  <rect x="418" y="128" width="128" height="138" rx="34" fill="#831843" opacity=".85"/>
  <circle cx="452" cy="164" r="22" fill="#0b1020"/><circle cx="452" cy="164" r="12" fill="#1e3a5f"/>
  <circle cx="510" cy="164" r="22" fill="#0b1020"/><circle cx="510" cy="164" r="12" fill="#1e3a5f"/>
  <circle cx="452" cy="226" r="22" fill="#0b1020"/><circle cx="452" cy="226" r="12" fill="#1e3a5f"/>
  <circle cx="510" cy="226" r="7" fill="#fde68a"/>
</g>
<rect x="196" y="130" width="250" height="540" rx="46" fill="url(#g29)"/>
<rect x="206" y="140" width="230" height="520" rx="38" fill="url(#g31)"/>
<rect x="216" y="150" width="210" height="500" rx="32" fill="url(#w32)" opacity=".9"/>
<circle cx="250" cy="560" r="120" fill="#fff" opacity=".10"/><circle cx="400" cy="250" r="90" fill="#fff" opacity=".10"/>
<rect x="290" y="166" width="62" height="18" rx="9" fill="#0b1020"/>
<text x="321" y="300" font-family="Inter, 'Segoe UI', Roboto, Arial, sans-serif" font-size="54" font-weight="300" fill="#fff" text-anchor="middle">10:08</text>
<text x="321" y="330" font-family="Inter, 'Segoe UI', Roboto, Arial, sans-serif" font-size="15" fill="#fff" opacity=".85" text-anchor="middle">Thursday, 8 October</text>
<path d="M214 170 Q230 150 260 152" stroke="#fff" stroke-width="3" opacity=".25" fill="none"/></svg>
